<?xml version="1.0" encoding="UTF-8"?>
<!DOCTYPE svg PUBLIC "-//W3C//DTD SVG 1.1//EN" "http://www.w3.org/Graphics/SVG/1.1/DTD/svg11.dtd">
<!-- Creator: CorelDRAW 2020 (64 Bit) -->
<svg xmlns="http://www.w3.org/2000/svg" xml:space="preserve" width="78.0626mm" height="21.4206mm" version="1.1" style="shape-rendering:geometricPrecision; text-rendering:geometricPrecision; image-rendering:optimizeQuality; fill-rule:evenodd; clip-rule:evenodd"
viewBox="0 0 7806.26 2142.06"
 xmlns:xlink="http://www.w3.org/1999/xlink"
 xmlns:xodm="http://www.corel.com/coreldraw/odm/2003">
 <defs>
  <style type="text/css">
   <![CDATA[
    .str0 {stroke:black;stroke-width:16.93;stroke-miterlimit:22.9256}
    .str1 {stroke:black;stroke-width:16.93;stroke-miterlimit:22.9256}
    .fil0 {fill:#373435}
    .fil1 {fill:black;fill-rule:nonzero}
    .fil2 {fill:black;fill-rule:nonzero}
   ]]>
  </style>
 </defs>
 <g id="Camada_x0020_1">
  <metadata id="CorelCorpID_0Corel-Layer"/>
  <g id="_1776157965040">
   <g>
    <path class="fil0" d="M3677.43 1548.83c3.65,-12.59 8.65,-24.83 14.86,-36.7l7.04 -13.44 7.74 13.04c29.58,49.89 71.39,90.43 132.41,90.43 42.52,0 79.46,-14.71 111.19,-42.98 29.41,-26.18 47.85,-58.39 47.85,-98.45 0,-23.3 -8.16,-47.81 -17.46,-68.79l-53.51 -116.59c-11.16,-25.03 -16.18,-51.82 -16.18,-79.16 0,-65.07 43.79,-127.53 85.62,-173.79 32.06,-35.46 70.4,-68.67 114.4,-88.29 44.14,-19.68 95.55,-25.45 143.45,-25.45 20.99,0 42.12,1.4 62.85,4.74l12.05 1.94 -16.04 28.07 -44.45 74.07c-15.78,27.16 -32.66,53.67 -50.07,79.94l-14.66 21.53 -35.53 -24.33 3.11 -6.53c2.19,-4.6 4.38,-9.31 6.53,-14.6 5.91,-12.11 18.3,-37.98 18.3,-51.61 0,-24.55 -35.04,-25.84 -52.42,-25.84 -36.04,0 -66.17,13.54 -91.73,38.67 -25.11,24.69 -39.19,54.1 -39.19,89.47 0,21.93 8.53,45.7 17.44,65.34l43.58 93.33c15.68,33.58 22.42,69.86 22.42,106.8 0,89.16 -56.87,160.24 -123.04,213.94 -51.59,41.88 -120.61,85.95 -189.52,85.95 -29.47,0 -57.62,-6.66 -81.21,-24.95 -21.48,-16.65 -32.95,-38.78 -32.95,-66.02 0,-6.4 0.35,-12.73 1.02,-18.98 -75.43,51.15 -160.32,83.69 -249.49,102.35l-11.62 2.43 1.5 -11.78c18.12,-142.36 110.14,-329.88 176.11,-455.91l58.72 -112.18c6.77,-12.93 29.02,-55.83 29.02,-70.25 0,-8.83 -1.2,-15.96 -11.32,-15.96 -24.34,0 -82.81,46.75 -100.98,61.47 -54.51,44.16 -104.99,93.24 -151.69,145.54 -108.27,121.26 -192,261.04 -256.28,409.99l-1.68 3.89 -4.12 0.99c-39.5,9.44 -81.89,27.15 -119.17,43.13l-20.98 8.99 10.05 -20.5c61.18,-124.72 116.28,-252.74 167.87,-381.7 16.88,-42.21 84.07,-205.05 84.07,-247.81 0,-13.24 -2.67,-23.99 -17.81,-23.99 -14.25,0 -42.83,8.86 -56.97,13.04 -3.22,0.8 -6.44,1.8 -9.64,2.71l-8.88 2.52 -8.76 -45.73 7.45 -2.12c77.54,-22.06 154.53,-48.27 228.18,-81.17l21.43 -9.58 2.07 10.4c1.05,5.27 2.63,12.37 2.63,17.72 0,75.38 -69.55,234.78 -108.6,321.29 76.98,-86.19 160.87,-170.85 251.63,-241.44 49.94,-38.84 134.94,-99.13 201.13,-99.13 34.5,0 52.65,19.38 52.65,53.58 0,52.84 -94.06,233.19 -118.98,281.71 -18.46,35.92 -140.62,270.85 -140.62,305.17 0,11.97 3.54,17.81 15.96,17.81 21.63,0 51.38,-16.83 68.78,-27.66l12.07 -9.64 12.37 21.06zm-2029.75 -11.02c-144.55,89.8 -302.14,138.75 -472.8,138.75 -125.33,0 -245.23,-27.3 -355.16,-87.89 -226.61,-124.89 -313.12,-336.79 -313.12,-589.04 0,-158.27 37.78,-309.73 140.42,-433.13 93.59,-112.53 213.93,-169.62 360.36,-169.62 139.15,0 261.9,44.29 365.96,136.88 58.43,51.99 103.79,113.99 137.68,184.37 50.28,104.38 87.18,232.68 118.27,344.13l45.43 162.87c17.44,62.53 37.02,129.65 62.51,189.89 68.61,-43.74 125.92,-118.67 168.84,-185.69 47.26,-73.82 90.4,-158.48 107.81,-245.34l-31.46 0.93c-62.3,0 -157.79,-2.07 -216.1,-25.66 -42.65,-17.25 -67.41,-47.9 -67.41,-94.68 0,-85.62 57.99,-170.8 111.43,-233.27 58.89,-68.84 128.76,-123.54 210.07,-163.42 95.48,-46.82 206.68,-74.01 310.96,-91.89l42.73 -7.77 -5.14 26.83c-5.18,24.01 -10.23,48.11 -14.46,72.31l-14.81 84.86c-2.4,15.08 -6.39,36.04 -6.39,51.21 0,10.3 2.09,17.8 13.48,17.8 9.82,0 19.72,-2.24 28.75,-5.6 17.61,-6.91 35.25,-13.86 52.99,-20.44l7.84 -2.91 17.58 45.77 -7.16 3.33c-74.42,34.62 -150.1,66.47 -226.78,95.73l-37.19 14.2 2.34 -14.49c4.11,-25.42 7.42,-51.03 10.45,-76.6 2.56,-21.58 5.23,-43.14 8.05,-64.69 2.68,-20.41 5.18,-41.97 5.18,-62.57 0,-30.6 -12.25,-46.86 -43.76,-46.86 -67.89,0 -140.48,38 -195.97,74.04 -80.21,52.1 -151.29,124.88 -151.29,226.24 0,26.7 9.94,45.7 35.57,55.11 40.54,14.89 129.33,14.62 172.61,14.62l4.21 0c1.21,-10.37 2.48,-21.51 2.48,-31.41 0,-44.64 -5.6,-90.49 -21.98,-132.27l-5.9 -15.08 15.74 3.76c79.29,18.92 97.67,95.83 97.66,168.35l-0.26 6.46 133.35 -2.9c41.52,0 102.49,1.07 141.89,15 95.85,33.9 140.38,104.89 140.38,205.47 0,147.67 -60.08,277.77 -152.08,391.02 -114.58,141.04 -260.31,223.17 -443.56,223.17 -123.49,0 -221.64,-48.1 -290.24,-149.88zm1083.52 -352.09c-24.65,38.64 -45.61,79.59 -63.22,122.17 -26.06,62.99 -47.26,133.89 -47.26,202.6 0,48.92 16.05,84.25 69.42,84.25 66.35,0 125.98,-45.48 170.44,-90.5 66.26,-67.1 114.63,-149.81 150.56,-236.5l7.16 -17.27 8.25 16.78c7.41,15.08 13.24,31.87 13.24,48.85 0,78.2 -69.54,155.64 -122.88,205.8 -75.82,71.3 -194.13,167.64 -304.34,167.64 -81.99,0 -114.47,-51.58 -114.47,-128.99 0,-102.41 34.67,-200.37 83.89,-289.05 54.21,-97.67 125.13,-182.02 214.64,-248.97 79.95,-59.81 182.78,-119.43 285.69,-119.43 41.63,0 79.85,13.74 79.85,61.3 0,30.93 -18.51,63.52 -35.87,88.03 -24.29,34.3 -54.12,64.17 -87.74,89.34 -37.14,27.81 -80.83,49.07 -123.64,66.57 -33.68,13.77 -80.13,30.61 -116.92,30.61 -34.86,0 -55.82,-21.2 -66.72,-53l-0.08 -0.23zm7.31 -11.22l2.19 0.37c18.88,3.22 39.66,6.37 58.84,6.37 59.18,0 113.04,-17.57 161.79,-51.05 35.73,-24.54 72.66,-59.8 72.66,-106.45 0,-28.97 -22.13,-35.12 -47.48,-35.12 -79.96,0 -149.39,62.61 -198.16,119.73 -18,21.1 -34.59,43.19 -49.84,66.15zm1887.55 215.98c-56.87,68.87 -119.71,135.96 -188.53,191.2 -46.25,37.12 -115.8,85.61 -177.75,85.61 -45.9,0 -68.11,-25.88 -68.11,-70.89 0,-76.95 79.08,-242.97 112.08,-312.36l72.32 -152.06c11.97,-25.18 32.71,-70.19 34.43,-98.25 0.99,-16.32 -6.89,-21 -22.47,-21 -13.73,0 -35.14,6.29 -48.29,10.16l-8.26 2.44 -11.87 -43.03 22.48 -7.17c70.72,-20.65 142.36,-43.85 210.12,-72.9l11.79 -5.05 0 12.83c0,69.5 -51.09,179.93 -80.89,241.65l-77.88 161.32c-18.63,38.59 -89.09,182.3 -89.09,223.47 0,18.76 5.81,30.48 25.85,30.48 78.87,0 181.61,-124.69 225.13,-180.04 96.11,-122.24 172.36,-257.1 228.74,-402.17l13.64 -33.76 5.05 -0.53c40.51,-4.31 82.15,-17.75 119.83,-32.82l21.14 -8.46 -10.49 20.21c-56.9,109.61 -106.26,226.68 -153.29,340.82 -23.64,57.37 -47.2,115.29 -68.25,173.67 -6.71,18.62 -22.53,60.3 -23.51,79.59 -0.51,15.35 7.7,19.38 22.13,19.38 20.79,0 49.17,-10.5 68.21,-18.23l7.28 -2.96 19.22 38.91 -7.37 3.81c-68.72,35.56 -146.79,65.26 -219.2,92.85l-38.24 13.86 2.28 -14.19c14.54,-90.64 40.05,-180.01 71.77,-266.39zm680.3 12.09c-62.06,68.21 -129.98,131.49 -204.39,185.83 -51.98,37.96 -134.31,91.87 -201.23,91.87 -54.19,0 -71.82,-40.05 -71.82,-88.81 0,-110.5 58.43,-215.17 124.15,-300.31 84.31,-109.22 189.33,-196.02 309.78,-263.06 129.31,-71.98 269.86,-117.58 418.85,-117.58 20.02,0 37.51,7.65 37.51,30.1 0,19.93 -18.88,55.69 -28.22,72.94l-2.89 5.34 -5.99 -1.03c-39,-6.75 -78.56,-10.69 -118.16,-10.69 -57.96,0 -112.8,7.15 -164.67,21.06l9.06 5.64c32.75,20.37 42,57.57 42,94.02 0,68.01 -37.75,136.17 -77.84,191.02 29.26,-4.54 59.12,-13.33 86.45,-22.57l18.6 -6.3 -15.31 33.3c-15.91,34.59 -86.07,186.28 -86.07,222.07 0,11.6 3.6,16.92 15.6,15.98 20.07,-1.58 60.15,-25.09 77.3,-35.3l6.77 -4.03 25.55 36.64 -6.53 4.9c-75.51,56.74 -172.07,91.17 -262.96,113.64l-11.06 2.74 0.58 -11.38c3.72,-73.25 48.17,-183.53 84.94,-266.03zm91.6 -373.98c-115.35,31.21 -216.01,95.91 -303.76,189.76 -78.05,83.48 -144.52,187.34 -144.52,305.43 0,32.03 7.44,63.54 45.01,63.54 39.25,0 97.94,-50.88 125.01,-75.66 57.91,-53.03 108.19,-113.36 150.98,-179.16 58.64,-90.17 101.73,-188.09 124.93,-293.27l2.35 -10.64zm705.08 -602.55c0,112.15 -101.89,343.83 -146.89,446.57 -66.13,150.99 -132.17,303.54 -191.19,457.46 -18.61,48.55 -63.69,161.24 -66.16,212.35 -0.87,18.09 2.96,31.2 23.39,30.08 22.26,-0.8 70.61,-38.53 87.53,-52.02l17.67 -13.63 27.05 36.71 -5.85 5.12c-47.85,41.91 -151.59,129.74 -219.13,129.74 -49.6,0 -62.54,-41.91 -62.54,-84.49 0,-53.19 20.25,-118.12 37.89,-167.86 19.6,-55.31 41.83,-110.34 63.7,-164.8 37.85,-94.24 76.68,-188.12 115.7,-281.88l85.92 -206.45c13.78,-33.12 76.92,-180.46 76.92,-213.39 0,-12.93 -7.3,-15.95 -19.36,-15.95 -10.12,0 -35.46,8.33 -45.22,11.3 -4.46,1.5 -8.93,2.96 -13.42,4.38l-7.8 2.47 -14.68 -41.59 21.24 -8.68c73.78,-28.16 152.27,-57.89 223.01,-93.02l12.22 -6.07 0 13.65zm-4003.72 556.15c-23.35,94.07 -71.72,182.59 -127.3,261.22 -59.51,84.19 -129.96,160.57 -213.51,221.31 21.56,45.07 51.69,95.18 92.27,124.51 38.92,28.14 87.26,37.03 134.42,37.03 121.55,0 220.71,-53.37 302.87,-141.32 85.35,-91.39 132.15,-198.86 132.15,-324.6 0,-50.6 -10.16,-107.81 -54.76,-138.6 -50.09,-34.58 -146.05,-38.68 -204.72,-38.68l-45.58 -0.01 -15.84 -0.86zm-475.46 507.77c-24.11,-53.68 -46.16,-109.65 -61.56,-166.39l-72.32 -266.4c-40.52,-149.26 -104.1,-338.31 -205.36,-458.16 -77.69,-91.95 -175.02,-140.71 -295.79,-140.71 -114.05,0 -214.53,35.31 -288.65,123.99 -80.52,96.33 -104.34,223.86 -104.34,346.26 0,80.23 15.29,158.5 42.46,233.86 26.81,74.37 64.06,144.23 114.74,205.14 60.79,73.04 134.55,129.48 220.54,169.89 85.98,40.41 176.43,61.01 271.45,61.01 135.04,0 262.32,-42.44 378.83,-108.49z"/>
   </g>
   <path class="fil1" d="M2431.46 603.13l11.75 30.59c-66.45,30.91 -141.86,62.74 -226.23,95.5l-23.48 8.96c3.4,-21.02 7.11,-46.67 10.5,-76.95 3.1,-24.42 5.57,-45.74 8.04,-64.59 3.4,-25.96 5.25,-47.29 5.25,-63.67 0,-36.77 -17.3,-55.32 -52.22,-55.32 -56.56,0 -123.31,25.04 -200.58,75.41 -103.53,67.06 -155.14,144.94 -155.14,233.33 0,32.14 13.6,53.16 41.11,63.05 27.19,10.2 85.91,15.14 175.53,15.14l11.75 0c2.16,-19.47 3.4,-32.76 3.4,-39.87 0,-51.61 -7.42,-96.73 -22.56,-135.36 60.88,14.53 91.17,67.68 91.17,159.78l-0.62 15.45 142.16 -3.09c65.52,0 111.87,4.94 139.07,14.52 89.93,31.84 134.74,97.66 134.74,197.49 0,133.81 -50.06,262.38 -150.19,385.69 -119.29,146.79 -265.16,220.04 -436.99,220.04 -126.1,0 -221.9,-51 -287.73,-152.98 -149.58,94.57 -308.12,141.85 -475.31,141.85 -128.56,0 -245.69,-29.05 -351.08,-86.84 -205.82,-113.73 -308.74,-307.5 -308.74,-581.63 0,-173.99 46.05,-316.46 138.46,-427.72 92.4,-110.94 210.46,-166.57 353.86,-166.57 139.38,0 259.6,44.81 360.34,134.74 56.25,49.76 101.37,110.02 135.68,181.72 34.61,71.39 73.86,185.74 117.74,342.73l45.43 162.87c24.73,88.08 46.98,154.83 66.76,199.95 59.95,-35.54 119.91,-99.82 179.86,-193.46 59.96,-93.64 97.04,-179.86 110.95,-258.67l-41.72 1.24c-100.75,0 -171.83,-8.35 -212.93,-25.04 -41.42,-16.69 -62.12,-45.43 -62.12,-86.84 0,-66.44 36.46,-142.47 109.4,-227.77 58.72,-68.61 127.64,-122.07 207.37,-161.32 79.73,-38.94 182.65,-69.54 308.74,-91.17l30.59 -5.56 -2.78 14.52c-5.87,27.2 -10.82,51.31 -14.52,72.63l-14.84 84.99c-4.32,27.19 -6.49,44.81 -6.49,52.54 0,17.61 7.42,26.26 21.94,26.26 10.2,0 21.02,-2.16 31.84,-6.18 24.41,-9.58 42.03,-16.38 52.84,-20.39zm-338.71 370.23c-19.78,84.37 -62.43,172.76 -127.64,265.17 -65.21,92.09 -137.52,166.57 -217.26,223.44 29.67,63.66 62.12,108.16 97.97,134.12 35.54,25.65 81.9,38.63 139.38,38.63 116.51,0 219.42,-47.9 309.05,-144.01 89.62,-95.81 134.43,-206.14 134.43,-330.37 0,-70.16 -19.47,-118.68 -58.41,-145.56 -38.94,-26.89 -108.78,-40.18 -209.53,-40.18l-45.12 0 -22.87 -1.24zm-458.01 520.13c-29.05,-63.97 -50.37,-121.46 -64.28,-172.14l-72.32 -266.4c-57.17,-212 -126.4,-365.91 -207.06,-461.4 -80.97,-95.81 -181.41,-143.71 -302.25,-143.71 -125.78,0 -224.36,42.34 -295.14,127.02 -70.77,84.68 -106.31,201.81 -106.31,351.69 0,78.19 14.22,157 42.96,236.73 28.74,79.74 67.37,148.96 116.2,207.68 61.5,73.86 135.98,131.04 223.44,172.14 87.46,41.1 178.94,61.81 275.05,61.81 128.26,0 258.37,-37.7 389.71,-113.42zm1384.22 -222.51c8.35,16.99 12.37,31.83 12.37,45.12 0,57.79 -40.18,124.54 -120.22,199.64 -117.13,110.33 -216.65,165.34 -298.54,165.34 -70.77,0 -106.01,-40.17 -106.01,-120.53 0,-90.55 27.51,-185.42 82.83,-284.94 55.32,-99.82 126.09,-181.72 212.31,-246.31 105.08,-78.5 198.41,-117.74 280.62,-117.74 47.59,0 71.39,17.61 71.39,52.84 0,22.87 -11.44,50.69 -34.31,83.14 -22.87,32.14 -51.61,61.5 -85.91,87.46 -32.14,23.79 -72.63,45.43 -121.77,65.51 -49.13,20.09 -87.15,29.98 -113.72,29.98 -28.44,0 -47.91,-15.76 -58.72,-47.28 25.34,4.32 45.43,6.49 60.26,6.49 60.26,0 115.89,-17.62 166.58,-52.54 50.99,-34.92 76.33,-72.63 76.33,-113.42 0,-29.05 -18.54,-43.58 -55.94,-43.58 -66.75,0 -135.05,40.8 -204.59,122.7 -49.44,57.48 -89.93,124.85 -121.76,201.8 -31.83,76.96 -47.9,145.56 -47.9,205.83 0,61.81 25.96,92.71 77.88,92.71 56.55,0 115.27,-30.9 176.46,-93.02 61.19,-61.81 111.88,-141.54 152.36,-239.2zm643.75 269.49l14.52 24.72c-72.62,51.61 -158.23,87.77 -257.12,108.47 12.67,-99.51 71.08,-250.63 175.22,-453.06l58.72 -112.18c20.09,-38.63 29.98,-63.36 29.98,-74.17 0,-16.38 -6.49,-24.42 -19.78,-24.42 -18.85,0 -54.39,21.02 -106.31,63.36 -52.23,42.03 -103.22,90.86 -152.67,146.48 -102.6,114.66 -188.52,251.88 -257.74,412.27 -28.44,6.8 -68.61,21.33 -120.53,43.58 55.63,-113.42 111.56,-240.75 168.12,-382.29 56.55,-141.24 84.68,-224.99 84.68,-250.95 0,-21.63 -8.66,-32.45 -26.27,-32.45 -8.96,0 -28.74,4.33 -59.03,13.29 -2.47,0.62 -5.56,1.55 -9.89,2.78l-5.56 -29.05c84.68,-24.1 161.01,-51.3 229.31,-81.59l11.75 -5.25c1.54,7.73 2.47,13.29 2.47,16.07 0,53.77 -39.87,168.12 -119.29,343.04l-12.68 27.2 15.15 -17.31c98.89,-112.8 190.06,-201.5 273.5,-266.4 83.45,-64.9 148.96,-97.35 195.94,-97.35 29.36,0 44.19,15.15 44.19,45.12 0,31.53 -39.25,123.93 -118.05,277.84 -94.26,182.95 -141.55,286.17 -141.55,309.04 0,17.62 8.04,26.27 24.42,26.27 17.92,0 42.65,-9.89 73.86,-29.36l4.64 -3.7zm653.63 -618.72l-9.89 17.31 -44.51 74.17c-15.45,26.58 -32.14,52.85 -49.75,79.43l-9.89 14.52 -22.56 -15.45c3.09,-6.49 5.25,-11.44 6.49,-14.53 12.67,-25.96 19.16,-44.19 19.16,-55.32 0,-22.86 -20.4,-34.3 -60.88,-34.3 -37.09,0 -69.54,13.6 -97.66,41.1 -27.82,27.51 -41.72,59.34 -41.72,95.5 0,19.47 6.18,42.34 18.23,68.92l43.58 93.33c14.52,31.21 21.63,65.83 21.63,103.22 0,72.94 -39.87,142.16 -119.91,207.37 -69.23,55.94 -130.73,84.06 -184.19,84.06 -30.91,0 -55.94,-7.72 -76.03,-23.18 -19.78,-15.45 -29.67,-35.23 -29.67,-59.33 0,-28.44 7.11,-55.94 21.02,-82.52 37.39,63.05 84.06,94.57 139.69,94.57 43.88,0 82.82,-15.14 116.82,-45.12 33.68,-30.29 50.68,-65.21 50.68,-104.77 0,-21.01 -6.18,-45.12 -18.23,-72.32l-53.47 -116.51c-10.2,-22.87 -15.45,-48.21 -15.45,-75.71 0,-50.07 27.81,-106.01 83.44,-168.12 37.4,-40.8 74.48,-69.54 111.57,-86.23 37.08,-16.38 83.75,-24.72 140,-24.72 21.63,0 42.34,1.54 61.5,4.63zm621.18 3.71c-42.03,80.97 -93.33,194.7 -153.6,341.5 -60.57,146.49 -91.17,232.09 -92.4,256.2 -0.62,18.85 9.58,28.12 30.59,28.12 16.38,0 40.18,-6.18 71.39,-18.85l12.06 24.41c-44.2,22.87 -116.82,53.78 -218.19,92.41l-24.73 8.96c15.77,-98.27 46.05,-203.35 90.56,-314.92 -77.58,98.59 -151.44,175.85 -220.97,231.79 -69.85,55.94 -127.02,83.75 -172.45,83.75 -39.87,0 -59.65,-20.71 -59.65,-62.43 0,-50.06 37.09,-152.98 111.26,-308.73l72.32 -152.06c22.25,-47.28 33.99,-80.97 35.23,-101.36 1.23,-20.09 -8.96,-29.98 -30.91,-29.98 -9.58,0 -26.57,3.4 -50.68,10.51l-7.42 -26.89 14.53 -4.64c84.68,-24.72 154.83,-49.13 211.08,-73.24 0,48.21 -26.58,127.64 -80.05,237.97l-77.88 161.32c-59.95,123.62 -89.93,199.33 -89.93,227.15 0,25.96 11.44,38.94 34.31,38.94 58.41,0 135.67,-61.19 231.78,-183.27 96.11,-122.38 172.76,-257.12 229.93,-404.23l11.74 -29.05c34.93,-3.71 75.72,-14.83 122.08,-33.38zm535.88 607.9l16.38 23.48c-63.35,47.6 -149.89,84.99 -259.91,112.19 3.09,-60.88 38.94,-165.96 107.86,-314.92 -77.88,91.48 -158.23,167.19 -240.75,227.46 -82.51,60.26 -147.72,90.24 -196.24,90.24 -42.34,0 -63.36,-26.89 -63.36,-80.35 0,-91.17 40.8,-189.45 122.39,-295.14 81.58,-105.7 183.88,-192.54 307.19,-260.84 138.76,-77.57 277.21,-116.51 414.74,-116.51 19.47,0 29.05,7.11 29.05,21.64 0,12.05 -8.96,35.23 -27.2,68.91 -41.1,-7.11 -80.97,-10.81 -119.6,-10.81 -184.5,0 -343.04,71.39 -475.93,213.86 -97.97,104.45 -146.8,208.29 -146.8,311.21 0,47.9 17.93,72 53.47,72 30.28,0 73.86,-25.96 130.72,-77.88 56.87,-52.22 107.55,-112.49 152.36,-180.79 61.5,-95.18 103.54,-193.77 126.1,-296.06 25.34,15.76 38.01,44.81 38.01,86.84 0,58.72 -29.36,125.78 -88.08,201.81 29.05,-2.48 64.9,-10.82 107.86,-25.35l-7.11 15.46c-57.79,128.56 -86.84,203.97 -86.84,225.6 0,17.31 8.34,25.65 24.72,24.41 15.14,-1.23 42.03,-13.28 80.97,-36.46zm621.18 -1107.32c0,73.56 -48.83,221.28 -146.18,443.18 -169.05,386.3 -254.96,610.36 -258.05,672.79 -1.24,27.2 9.58,40.18 32.14,38.94 17.3,-0.62 48.21,-18.54 92.4,-53.77l10.82 -8.35 17.31 23.49c-97.04,84.99 -168.13,127.64 -213.56,127.64 -36.15,0 -54.08,-25.35 -54.08,-76.03 0,-39.25 12.36,-94.26 37.4,-165.03 25.03,-70.46 84.67,-219.42 179.24,-446.26l85.92 -206.45c51.61,-123.92 77.57,-195.93 77.57,-216.64 0,-16.38 -9.27,-24.41 -27.82,-24.41 -6.79,0 -22.56,4.01 -47.9,11.74 -2.78,0.93 -7.41,2.47 -13.29,4.33l-9.27 -26.27 13.6 -5.56c104.46,-39.87 178.94,-71.09 223.75,-93.34z"/>
   <path class="fil1" d="M3131.71 1855.17c8.25,0 12.3,5.82 12.3,17.45 0,0.15 0,1.33 0,3.69 -0.15,2.28 -0.22,4.12 -0.22,5.59 0,7.73 2.35,11.64 6.92,11.64 2.43,0 6.26,-3.1 11.41,-9.28 7.81,-8.91 17.6,-15.98 29.39,-21.28 11.78,-5.23 23.86,-7.81 36.23,-7.81 24,0 40.72,8.76 50.07,26.29 3.54,6.48 6.48,9.72 8.84,9.72 1.55,0 5.3,-2.87 11.19,-8.62 18.71,-18.26 39.92,-27.39 63.63,-27.39 18.56,0 33.73,5.08 45.59,15.24 12.29,10.68 18.48,26.66 18.48,47.94 0,4.57 -0.07,12.38 -0.37,23.28 -0.29,3.75 -0.44,15.02 -0.44,33.87 0,12.08 -0.07,20.62 -0.22,25.48 -0.15,3.02 -0.22,5.16 -0.22,6.48 0,9.21 2.87,17.23 8.61,24.16 3.46,4.19 5.6,6.92 6.41,8.32 0.74,1.32 1.18,3.16 1.18,5.45 0,18.41 -21.65,27.61 -64.95,27.69 -19.15,-0.08 -34.54,-2.36 -46.32,-6.93 -11.71,-4.64 -17.53,-10.67 -17.53,-18.11 0,-2.87 0.37,-5.08 1.18,-6.63 0.73,-1.47 3.53,-5.45 8.25,-11.93 4.49,-5.89 6.7,-25.55 6.7,-58.91 0,-19.44 -1.33,-32.92 -4.05,-40.58 -3.17,-9.06 -9.5,-13.55 -19,-13.55 -4.79,0 -8.99,1.47 -12.67,4.42 -3.61,2.94 -6.04,6.63 -7.22,11.12 -1.25,5.15 -1.98,18.92 -2.13,41.38 0.44,24.16 1.18,38.81 2.28,44.04 1.03,5.16 4.71,12.37 10.9,21.58 1.4,2.14 2.14,4.86 2.14,8.17 0,17.09 -22.39,25.7 -67.09,25.7 -26.88,0 -45,-2.06 -54.35,-6.03 -7.51,-3.17 -11.27,-8.84 -11.27,-16.87 0,-3.61 0.52,-6.11 1.4,-7.58 0.96,-1.4 4.13,-4.72 9.65,-9.87 3.17,-3.02 5.15,-5.89 6.11,-8.54 0.96,-2.65 1.62,-7.51 2.06,-14.58 1.03,-15.84 1.55,-31.74 1.55,-47.87 0,-28.21 -7.22,-42.27 -21.58,-42.27 -10.82,0 -17.23,6.04 -19.22,18.11 -1.76,11.35 -2.57,27.62 -2.57,48.75 0,15.84 0.29,26.15 0.95,31.08 0.67,4.86 2.43,9.94 5.3,15.32 3.47,6.19 5.16,11.19 5.16,15.1 0,9.35 -6.55,15.83 -19.66,19.36 -14.22,3.91 -29.9,5.89 -46.99,5.89 -22.16,0 -38.44,-1.76 -48.75,-5.3 -10.38,-3.53 -15.54,-9.13 -15.54,-16.71 0,-2.88 0.67,-5.38 1.99,-7.37 1.4,-1.99 4.5,-5.15 9.43,-9.5 6.48,-5.89 10.24,-13.99 11.19,-24.37 1.62,-17.82 2.36,-36.31 2.36,-55.46 0,-13.62 -0.66,-23.19 -1.99,-28.57 -1.4,-5.37 -4.27,-9.72 -8.76,-13.03 -4.35,-3.32 -7.07,-5.82 -8.32,-7.59 -1.18,-1.69 -1.84,-4.05 -1.84,-7.07 0,-9.64 7.58,-17.3 22.68,-22.9 36.38,-13.11 63.62,-19.74 81.74,-19.81zm455.03 -1.77c26.29,0 49.41,6.85 69.22,20.48 14.29,9.79 25.7,22.53 34.32,38.22 8.91,16.42 13.4,33.5 13.4,51.32 0,31.23 -14.36,57.74 -42.93,79.61 -27.32,20.84 -58.62,31.3 -93.89,31.3 -34.32,0 -62.16,-9.8 -83.44,-29.31 -20.77,-19 -31.08,-43.74 -31.08,-74.23 0,-33.95 12.67,-61.71 37.93,-83.29 26.51,-22.76 58.62,-34.1 96.47,-34.1zm-17.31 49.86c-6.33,0 -11.34,2.35 -15.17,6.99 -3.83,4.72 -5.74,10.9 -5.74,18.64 0,8.69 1.62,20.39 4.86,35.27 3.24,14.95 7.07,28.13 11.56,39.62 4.42,11.78 11.71,17.67 21.8,17.67 12.81,0 19.22,-8.1 19.22,-24.37 0,-12.08 -1.62,-25.78 -4.86,-41.17 -3.24,-15.39 -7.22,-27.91 -11.78,-37.56 -4.72,-9.79 -11.34,-14.8 -19.89,-15.09zm401.94 -112.01l0 196.99c0,11.19 0.51,18.41 1.4,21.58 0.95,3.16 3.6,6.26 7.88,9.28 5.15,3.6 8.69,6.77 10.45,9.5 1.84,2.72 2.73,6.03 2.73,9.94 0,11.49 -11.56,20.25 -34.76,26.29 -20.84,5.3 -41.68,8.02 -62.52,8.02 -4.64,0 -7.59,-0.73 -8.99,-2.06 -1.4,-1.4 -2.28,-4.64 -2.72,-9.87 -0.66,-7.29 -3.32,-10.97 -7.73,-10.97 -2.43,0 -6.26,2.14 -11.42,6.48 -14.73,11.93 -31,17.9 -48.97,17.9 -22.31,0 -42.42,-8.25 -60.24,-24.82 -10.46,-9.94 -19,-21.36 -25.48,-34.32 -8.62,-16.79 -12.89,-33.87 -12.89,-51.1 0,-20.26 5.6,-39.84 16.79,-58.7 10.39,-17.38 24.45,-30.78 42.27,-40.13 15.03,-7.73 29.76,-11.64 44.26,-11.64 16.72,0 31.67,3.76 44.85,11.2 2.21,1.18 3.9,1.76 5.23,1.76 4.56,0 6.85,-6.18 6.85,-18.55 0,-5.31 -1.25,-9.43 -3.76,-12.23 -2.5,-2.8 -6.99,-5.23 -13.47,-7.21 -9.06,-2.88 -13.63,-7.88 -13.63,-15.1 0,-10.53 10.46,-18.71 31.3,-24.6 36.82,-10.23 61.49,-15.31 74.01,-15.31 12.37,0 18.56,5.89 18.56,17.67zm-117.17 108.55c-9.35,0 -16.71,4.93 -22.16,14.87 -7.37,13.26 -11.05,30.64 -11.05,52.21 0,19.59 3.54,34.32 10.61,44.26 5,7.15 11.85,10.75 20.47,10.75 9.35,0 16.12,-5.44 20.4,-16.27 4.27,-10.83 6.33,-28.35 6.33,-52.51 0,-22.16 -2.5,-36.89 -7.51,-44.26 -3.91,-5.74 -9.58,-8.76 -17.09,-9.05zm275.5 -46.4c25.03,0 46.24,6.34 63.62,19 9.21,6.78 15.69,14.51 19.37,23.2 3.61,8.69 5.45,20.69 5.45,35.94l-0.44 32.1c0,22.32 1.62,36.75 4.79,43.38 1.54,3.17 3.09,5.15 4.56,6.04 1.4,0.88 4.42,1.62 9.06,2.35 4.56,0.74 6.85,3.76 6.85,9.06 0,6.92 -2.73,14.14 -8.32,21.58 -5.53,7.51 -12.67,13.77 -21.43,18.78 -10.83,6.33 -22.1,9.5 -33.88,9.5 -15.1,0 -27.03,-5.16 -35.79,-15.54 -3.02,-3.76 -5.82,-5.6 -8.47,-5.6 -2.87,0 -6.63,1.77 -11.41,5.38 -14.36,10.53 -30.71,15.76 -48.97,15.76 -18.86,0 -34.1,-4.05 -45.74,-12.08 -7.58,-5.3 -13.69,-12.3 -18.11,-20.84 -4.49,-8.54 -6.7,-17.45 -6.7,-26.81 0,-15.02 6.04,-28.2 18.11,-39.76 18.86,-18.12 47.06,-27.25 84.62,-27.4 8.32,0 13.55,-0.81 15.76,-2.43 2.13,-1.69 3.16,-5.52 3.16,-11.56 0,-15.24 -1.54,-26.29 -4.71,-33.14 -3.17,-6.77 -8.32,-10.23 -15.54,-10.23 -4.34,0 -8.17,1.32 -11.56,3.9 -3.39,2.58 -7.58,7.29 -12.59,14.21 -12.82,18.27 -26.22,27.4 -40.14,27.4 -7.07,0 -12.81,-2.07 -17.23,-6.26 -4.49,-4.13 -6.7,-9.65 -6.7,-16.35 0,-6.92 2.72,-13.85 8.32,-20.77 5.52,-6.85 13.04,-12.89 22.54,-18.11 25.99,-13.77 53.16,-20.7 81.52,-20.7zm-14.44 124.9c-6.33,0 -11.85,2.58 -16.49,7.8 -4.72,5.16 -7,11.35 -7,18.56 0,6.92 1.62,12.45 4.94,16.72 3.31,4.2 7.65,6.33 13.18,6.33 11.49,0 17.23,-9.72 17.23,-29.09 0,-7.95 -0.81,-13.25 -2.5,-15.98 -1.62,-2.72 -4.79,-4.19 -9.36,-4.34zm372.12 -109.8l0 125.34c0,9.94 0.88,17.23 2.72,21.8 1.77,4.63 5.45,8.83 10.9,12.74 4.42,3.16 7.44,5.89 8.91,8.1 1.55,2.21 2.28,5.08 2.28,8.54 0,18.56 -23.49,27.83 -70.54,27.83 -25.34,0 -45.37,-2.06 -60.17,-6.03 -5.08,-1.48 -9.13,-3.98 -12.22,-7.59 -3.1,-3.61 -4.64,-7.66 -4.64,-12.3 0,-3.9 0.81,-6.92 2.35,-9.05 1.62,-2.14 5.67,-5.6 12.15,-10.39 4.42,-3.31 7.59,-8.69 9.43,-16.13 1.91,-7.51 2.87,-18.63 2.87,-33.43 0,-4.79 -0.37,-13.7 -1.03,-26.66 -0.59,-13.03 -1.1,-20.62 -1.4,-22.75 -0.81,-5.89 -4.86,-10.46 -12.08,-13.63 -8.91,-3.9 -13.33,-9.64 -13.33,-17.23 0,-9.06 5.82,-15.83 17.46,-20.32 16.13,-6.19 33.36,-11.42 51.77,-15.76 18.41,-4.27 32.62,-6.41 42.71,-6.41 7.95,0 11.86,4.42 11.86,13.33zm-42.72 -94.48c12.52,0 22.47,2.35 29.76,6.99 7.36,4.72 11.04,10.98 11.04,18.93 0,11.05 -5.52,19.81 -16.64,26.29 -17.53,10.24 -38.74,15.32 -63.63,15.32 -10.53,0 -18.85,-1.99 -25.04,-6.04 -8.32,-5.16 -12.51,-12.37 -12.51,-21.58 0,-12.37 8.83,-22.09 26.58,-29.16 17.97,-7.14 34.76,-10.75 50.44,-10.75zm342 159.21l3.02 75.92c0.29,5.75 1.17,10.02 2.72,12.74 1.47,2.73 5.89,8.03 13.26,15.76 2.13,2.29 3.24,5.53 3.24,9.72 0,9.5 -5.67,16.13 -17.09,19.81 -11.34,3.76 -31.59,5.67 -60.83,5.67 -19.81,0 -33.87,-1.76 -42.05,-5.22 -8.46,-3.61 -12.74,-9.43 -12.74,-17.46 0,-2.87 0.45,-5 1.33,-6.33 0.81,-1.4 3.68,-4.71 8.62,-10.09 5.74,-6.04 8.61,-26.14 8.61,-60.39 0,-19.88 -2.28,-34.53 -6.92,-44.03 -3.76,-7.59 -10.6,-11.42 -20.69,-11.42 -9.65,0 -16.28,3.1 -19.89,9.28 -3.53,6.19 -5.37,17.38 -5.37,33.66l0 42.71c0,8.47 0.59,14.28 1.62,17.45 1.1,3.17 4.64,9.28 10.68,18.34 1.62,2.65 2.35,5.59 2.35,8.91 0,8.47 -5.89,14.73 -17.67,18.7 -11.78,4.05 -30.2,6.04 -55.23,6.12 -39.99,-0.08 -59.95,-8.33 -59.95,-24.82 0,-3.46 0.59,-6.11 1.84,-7.88 1.18,-1.84 4.13,-4.35 8.69,-7.66 3.76,-2.72 6.12,-5.89 7.15,-9.43 1.03,-3.53 1.91,-12.15 2.79,-25.99 1.04,-16.35 1.55,-33.58 1.55,-51.55 0,-9.94 -0.81,-16.42 -2.28,-19.52 -1.55,-3.09 -5.89,-6.84 -13.04,-11.34 -6.18,-3.9 -9.28,-8.61 -9.28,-14.21 0,-5.74 2.51,-10.46 7.52,-14.14 5.08,-3.68 15.39,-8.32 31.07,-13.92 13.85,-4.93 27.1,-9.05 39.92,-12.44 12.81,-3.39 21.57,-5.01 26.29,-5.01 4.34,0 7.95,1.55 10.9,4.71 2.94,3.17 4.41,6.93 4.41,11.2 0,0.44 -0.07,2.28 -0.14,5.45 -0.15,1.1 -0.22,2.13 -0.22,3.02 0,6.84 2.87,10.31 8.61,10.31 3.46,0 7.07,-2.73 10.97,-8.18 12.38,-17.82 30.35,-26.73 53.98,-26.73 18.12,0 33.66,4.71 46.55,14.21 9.05,6.78 15.39,14.73 19,23.86 3.6,9.13 5.81,22.54 6.7,40.21zm162.89 -23.05l0 72.91c0,8.61 2.07,15.68 6.34,21.13 4.27,5.45 9.64,8.18 16.27,8.18 5.6,0 13.04,-2.58 22.24,-7.74 2.14,-1.32 4.35,-1.99 6.48,-1.99 3.46,0 6.63,2.14 9.5,6.26 2.87,4.2 4.27,8.77 4.27,13.63 0,8.91 -4.86,17.45 -14.65,25.7 -20.4,17.38 -45.14,26.07 -74.23,26.07 -22.98,0 -41.46,-6.48 -55.45,-19.52 -13.92,-13.03 -20.92,-30.19 -20.92,-51.47l0 -99.64c0,-3.31 -0.37,-5.38 -1.18,-6.19 -0.81,-0.81 -2.79,-1.17 -6.11,-1.17l-22.24 0c-4.2,0 -6.85,-0.67 -8.03,-2.07 -1.1,-1.32 -1.69,-4.56 -1.69,-9.57l0 -9.5c0.15,-4.34 1.77,-7.51 4.93,-9.5l98.83 -62.15c2.43,-1.25 5.45,-1.92 9.06,-1.92l17.53 0c3.53,0 5.96,0.81 7.21,2.51 1.18,1.62 1.84,4.93 1.84,9.79l0 29.09c0,4.34 0.67,7.14 1.99,8.47 1.4,1.25 4.35,1.91 8.77,1.91l39.91 0c5.3,0 8.76,0.96 10.38,2.95 1.55,1.91 2.36,6.04 2.36,12.37l0 12.74c0,6.92 -1.03,11.71 -3.02,14.36 -1.99,2.65 -5.67,3.98 -11.05,3.98l-39.03 0c-3.97,0 -6.77,0.73 -8.17,2.13 -1.47,1.48 -2.14,4.2 -2.14,8.25zm196.26 -41.68l0 125.34c0,9.94 0.88,17.23 2.72,21.8 1.77,4.63 5.45,8.83 10.9,12.74 4.42,3.16 7.44,5.89 8.91,8.1 1.55,2.21 2.28,5.08 2.28,8.54 0,18.56 -23.49,27.83 -70.54,27.83 -25.34,0 -45.37,-2.06 -60.17,-6.03 -5.08,-1.48 -9.13,-3.98 -12.22,-7.59 -3.1,-3.61 -4.64,-7.66 -4.64,-12.3 0,-3.9 0.81,-6.92 2.35,-9.05 1.62,-2.14 5.67,-5.6 12.15,-10.39 4.42,-3.31 7.59,-8.69 9.43,-16.13 1.91,-7.51 2.87,-18.63 2.87,-33.43 0,-4.79 -0.37,-13.7 -1.03,-26.66 -0.59,-13.03 -1.1,-20.62 -1.4,-22.75 -0.81,-5.89 -4.86,-10.46 -12.08,-13.63 -8.91,-3.9 -13.33,-9.64 -13.33,-17.23 0,-9.06 5.82,-15.83 17.46,-20.32 16.13,-6.19 33.36,-11.42 51.77,-15.76 18.41,-4.27 32.62,-6.41 42.71,-6.41 7.95,0 11.86,4.42 11.86,13.33zm-42.72 -94.48c12.52,0 22.47,2.35 29.76,6.99 7.36,4.72 11.04,10.98 11.04,18.93 0,11.05 -5.52,19.81 -16.64,26.29 -17.53,10.24 -38.74,15.32 -63.63,15.32 -10.53,0 -18.85,-1.99 -25.04,-6.04 -8.32,-5.16 -12.51,-12.37 -12.51,-21.58 0,-12.37 8.83,-22.09 26.58,-29.16 17.97,-7.14 34.76,-10.75 50.44,-10.75zm184.92 81.15c8.25,0 12.3,5.82 12.3,17.45 0,0.15 0,1.33 0,3.69 -0.15,2.28 -0.22,4.12 -0.22,5.59 0,7.73 2.35,11.64 6.92,11.64 2.43,0 6.26,-3.1 11.41,-9.28 7.81,-8.91 17.6,-15.98 29.39,-21.28 11.78,-5.23 23.86,-7.81 36.23,-7.81 24,0 40.72,8.76 50.07,26.29 3.54,6.48 6.48,9.72 8.84,9.72 1.55,0 5.3,-2.87 11.19,-8.62 18.71,-18.26 39.92,-27.39 63.63,-27.39 18.56,0 33.73,5.08 45.59,15.24 12.29,10.68 18.48,26.66 18.48,47.94 0,4.57 -0.07,12.38 -0.37,23.28 -0.29,3.75 -0.44,15.02 -0.44,33.87 0,12.08 -0.07,20.62 -0.22,25.48 -0.15,3.02 -0.22,5.16 -0.22,6.48 0,9.21 2.87,17.23 8.61,24.16 3.46,4.19 5.6,6.92 6.41,8.32 0.74,1.32 1.18,3.16 1.18,5.45 0,18.41 -21.65,27.61 -64.95,27.69 -19.15,-0.08 -34.54,-2.36 -46.32,-6.93 -11.71,-4.64 -17.53,-10.67 -17.53,-18.11 0,-2.87 0.37,-5.08 1.18,-6.63 0.73,-1.47 3.53,-5.45 8.25,-11.93 4.49,-5.89 6.7,-25.55 6.7,-58.91 0,-19.44 -1.33,-32.92 -4.05,-40.58 -3.17,-9.06 -9.5,-13.55 -19,-13.55 -4.79,0 -8.99,1.47 -12.67,4.42 -3.61,2.94 -6.04,6.63 -7.22,11.12 -1.25,5.15 -1.98,18.92 -2.13,41.38 0.44,24.16 1.18,38.81 2.28,44.04 1.03,5.16 4.71,12.37 10.9,21.58 1.4,2.14 2.14,4.86 2.14,8.17 0,17.09 -22.39,25.7 -67.09,25.7 -26.88,0 -45,-2.06 -54.35,-6.03 -7.51,-3.17 -11.27,-8.84 -11.27,-16.87 0,-3.61 0.52,-6.11 1.4,-7.58 0.96,-1.4 4.13,-4.72 9.65,-9.87 3.17,-3.02 5.15,-5.89 6.11,-8.54 0.96,-2.65 1.62,-7.51 2.06,-14.58 1.03,-15.84 1.55,-31.74 1.55,-47.87 0,-28.21 -7.22,-42.27 -21.58,-42.27 -10.82,0 -17.23,6.04 -19.22,18.11 -1.76,11.35 -2.57,27.62 -2.57,48.75 0,15.84 0.29,26.15 0.95,31.08 0.67,4.86 2.43,9.94 5.3,15.32 3.47,6.19 5.16,11.19 5.16,15.1 0,9.35 -6.55,15.83 -19.66,19.36 -14.22,3.91 -29.9,5.89 -46.99,5.89 -22.16,0 -38.44,-1.76 -48.75,-5.3 -10.38,-3.53 -15.54,-9.13 -15.54,-16.71 0,-2.88 0.67,-5.38 1.99,-7.37 1.4,-1.99 4.5,-5.15 9.43,-9.5 6.48,-5.89 10.24,-13.99 11.19,-24.37 1.62,-17.82 2.36,-36.31 2.36,-55.46 0,-13.62 -0.66,-23.19 -1.99,-28.57 -1.4,-5.37 -4.27,-9.72 -8.76,-13.03 -4.35,-3.32 -7.07,-5.82 -8.32,-7.59 -1.18,-1.69 -1.84,-4.05 -1.84,-7.07 0,-9.64 7.58,-17.3 22.68,-22.9 36.38,-13.11 63.62,-19.74 81.74,-19.81zm444.65 -1.77c25.03,0 46.24,6.34 63.62,19 9.21,6.78 15.69,14.51 19.37,23.2 3.61,8.69 5.45,20.69 5.45,35.94l-0.44 32.1c0,22.32 1.62,36.75 4.79,43.38 1.54,3.17 3.09,5.15 4.56,6.04 1.4,0.88 4.42,1.62 9.06,2.35 4.56,0.74 6.85,3.76 6.85,9.06 0,6.92 -2.73,14.14 -8.32,21.58 -5.53,7.51 -12.67,13.77 -21.43,18.78 -10.83,6.33 -22.1,9.5 -33.88,9.5 -15.1,0 -27.03,-5.16 -35.79,-15.54 -3.02,-3.76 -5.82,-5.6 -8.47,-5.6 -2.87,0 -6.63,1.77 -11.41,5.38 -14.36,10.53 -30.71,15.76 -48.97,15.76 -18.86,0 -34.1,-4.05 -45.74,-12.08 -7.58,-5.3 -13.69,-12.3 -18.11,-20.84 -4.49,-8.54 -6.7,-17.45 -6.7,-26.81 0,-15.02 6.04,-28.2 18.11,-39.76 18.86,-18.12 47.06,-27.25 84.62,-27.4 8.32,0 13.55,-0.81 15.76,-2.43 2.13,-1.69 3.16,-5.52 3.16,-11.56 0,-15.24 -1.54,-26.29 -4.71,-33.14 -3.17,-6.77 -8.32,-10.23 -15.54,-10.23 -4.34,0 -8.17,1.32 -11.56,3.9 -3.39,2.58 -7.58,7.29 -12.59,14.21 -12.82,18.27 -26.22,27.4 -40.14,27.4 -7.07,0 -12.81,-2.07 -17.23,-6.26 -4.49,-4.13 -6.7,-9.65 -6.7,-16.35 0,-6.92 2.72,-13.85 8.32,-20.77 5.52,-6.85 13.04,-12.89 22.54,-18.11 25.99,-13.77 53.16,-20.7 81.52,-20.7zm-14.44 124.9c-6.33,0 -11.85,2.58 -16.49,7.8 -4.72,5.16 -7,11.35 -7,18.56 0,6.92 1.62,12.45 4.94,16.72 3.31,4.2 7.65,6.33 13.18,6.33 11.49,0 17.23,-9.72 17.23,-29.09 0,-7.95 -0.81,-13.25 -2.5,-15.98 -1.62,-2.72 -4.79,-4.19 -9.36,-4.34z"/>
   <polygon class="fil1" points="7315.2,87.78 7064.26,87.78 6969.6,182.53 7153.52,182.53 6969.68,366.62 7036.69,433.38 7220.45,249.37 7220.45,433.38 7315.2,338.72 "/>
   <g>
    <path class="fil1 str0" d="M6204.61 896.12c0,-92 32.5,-170.35 97.36,-235.2 64.86,-64.86 143.21,-97.37 235.21,-97.37 91.99,0 170.34,32.51 235.2,97.37 64.86,64.85 97.37,143.2 97.37,235.2 0,92 -32.51,170.35 -97.37,235.21 -64.86,64.85 -143.21,97.36 -235.2,97.36 -92,0 -170.35,-32.51 -235.21,-97.36 -64.86,-64.86 -97.36,-143.21 -97.36,-235.21zm66.24 0c0,73.29 26.06,135.7 78.04,187.67 51.98,51.83 114.84,77.74 188.29,77.74 73.44,0 136.31,-25.91 188.28,-77.74 51.98,-51.97 78.05,-114.38 78.05,-187.67 0,-73.29 -26.07,-135.69 -78.05,-187.67 -51.97,-51.83 -114.84,-77.74 -188.28,-77.74 -73.45,0 -136.31,25.91 -188.29,77.74 -51.98,51.98 -78.04,114.38 -78.04,187.67z"/>
    <polygon class="fil1 str0" points="6516.03,1366.71 6516.03,1168.8 6594.93,1168.8 6594.93,1366.71 6792.85,1366.71 6792.85,1446.27 6594.93,1446.27 6594.93,1644.19 6516.03,1644.19 6516.03,1446.27 6318.11,1446.27 6318.11,1366.71 "/>
   </g>
   <path class="fil2 str1" d="M6462.01 632.99c0,-92.69 32.75,-171.63 98.09,-236.97 65.35,-65.35 144.28,-98.1 236.97,-98.1 92.69,0 171.63,32.75 236.97,98.1 65.34,65.34 98.09,144.28 98.09,236.97 0,92.68 -32.75,171.62 -98.09,236.97 -65.34,65.34 -144.28,98.09 -236.97,98.09 -92.69,0 -171.62,-32.75 -236.97,-98.09 -65.34,-65.35 -98.09,-144.29 -98.09,-236.97zm66.73 0c0,73.84 26.26,136.71 78.63,189.08 52.37,52.21 115.71,78.32 189.7,78.32 74,0 137.33,-26.11 189.7,-78.32 52.37,-52.37 78.63,-115.24 78.63,-189.08 0,-73.84 -26.26,-136.72 -78.63,-189.08 -52.37,-52.22 -115.7,-78.33 -189.7,-78.33 -73.99,0 -137.33,26.11 -189.7,78.33 -52.37,52.36 -78.63,115.24 -78.63,189.08z"/>
  </g>
 </g>
</svg>
