<?xml version="1.0" encoding="UTF-8"?>
<!DOCTYPE svg PUBLIC "-//W3C//DTD SVG 1.1//EN" "http://www.w3.org/Graphics/SVG/1.1/DTD/svg11.dtd">
<!-- Creator: CorelDRAW X7 -->
<svg xmlns="http://www.w3.org/2000/svg" xml:space="preserve" width="78.0626mm" height="21.4206mm" version="1.1" style="shape-rendering:geometricPrecision; text-rendering:geometricPrecision; image-rendering:optimizeQuality; fill-rule:evenodd; clip-rule:evenodd"
viewBox="0 0 7806 2142"
 xmlns:xlink="http://www.w3.org/1999/xlink">
 <defs>
  <style type="text/css">
   <![CDATA[
    .str0 {stroke:black;stroke-width:16.93}
    .str1 {stroke:black;stroke-width:16.93}
    .fil0 {fill:#373435}
    .fil2 {fill:black;fill-rule:nonzero}
    .fil1 {fill:black;fill-rule:nonzero}
   ]]>
  </style>
 </defs>
 <g id="Camada_x0020_1">
  <metadata id="CorelCorpID_0Corel-Layer"/>
  <g id="_1904337722400">
   <g>
    <path class="fil0" d="M3677 1549c4,-13 9,-25 15,-37l7 -13 8 13c30,50 71,90 132,90 43,0 80,-15 112,-43 29,-26 48,-58 48,-98 0,-24 -9,-48 -18,-69l-53 -117c-12,-25 -17,-51 -17,-79 0,-65 44,-127 86,-174 32,-35 70,-68 114,-88 45,-20 96,-25 144,-25 21,0 42,1 63,4l12 2 -16 28 -45 74c-16,28 -32,54 -50,80l-14 22 -36 -24 3 -7c2,-5 4,-9 7,-15 6,-12 18,-37 18,-51 0,-25 -35,-26 -52,-26 -37,0 -67,14 -92,39 -25,24 -39,54 -39,89 0,22 8,46 17,66l44 93c15,33 22,70 22,107 0,89 -57,160 -123,214 -52,41 -121,86 -190,86 -29,0 -57,-7 -81,-25 -21,-17 -33,-39 -33,-66 0,-7 1,-13 1,-19 -75,51 -160,83 -249,102l-12 2 2 -11c18,-143 110,-330 176,-456l59 -112c6,-13 29,-56 29,-71 0,-9 -2,-16 -12,-16 -24,0 -83,47 -101,62 -54,44 -105,93 -151,145 -109,122 -192,261 -257,410l-1 4 -4 1c-40,10 -82,27 -120,43l-21 9 10 -20c62,-125 117,-253 168,-382 17,-42 84,-205 84,-248 0,-13 -2,-24 -17,-24 -15,0 -43,9 -57,13 -4,1 -7,2 -10,3l-9 3 -9 -46 8 -2c77,-22 154,-49 228,-81l21 -10 2 10c1,6 3,13 3,18 0,75 -70,235 -109,321 77,-86 161,-170 252,-241 50,-39 135,-99 201,-99 35,0 53,19 53,53 0,53 -94,234 -119,282 -19,36 -141,271 -141,305 0,12 4,18 16,18 22,0 52,-17 69,-28l12 -9 12 21zm-2029 -11c-145,90 -302,139 -473,139 -125,0 -245,-28 -355,-88 -227,-125 -313,-337 -313,-589 0,-159 37,-310 140,-433 94,-113 214,-170 360,-170 140,0 262,44 366,137 59,52 104,114 138,184 50,105 87,233 118,344l46 163c17,63 37,130 62,190 69,-44 126,-119 169,-186 47,-73 90,-158 108,-245l-32 1c-62,0 -157,-2 -216,-26 -42,-17 -67,-48 -67,-94 0,-86 58,-171 111,-234 59,-69 129,-123 210,-163 96,-47 207,-74 311,-92l43 -8 -5 27c-5,24 -10,48 -14,72l-15 85c-3,15 -7,36 -7,51 0,11 2,18 14,18 10,0 20,-2 29,-5 17,-7 35,-14 53,-21l7 -3 18 46 -7 3c-75,35 -150,67 -227,96l-37 14 2 -14c4,-26 8,-51 11,-77 2,-21 5,-43 8,-64 2,-21 5,-42 5,-63 0,-31 -12,-47 -44,-47 -68,0 -140,38 -196,74 -80,52 -151,125 -151,226 0,27 10,46 35,56 41,14 130,14 173,14l4 0c1,-10 3,-21 3,-31 0,-45 -6,-91 -22,-133l-6 -15 16 4c79,19 97,96 97,168l0 7 133 -3c42,0 103,1 142,15 96,34 141,105 141,206 0,147 -61,277 -153,391 -114,141 -260,223 -443,223 -124,0 -222,-48 -290,-150zm1083 -352c-24,38 -45,79 -63,122 -26,63 -47,134 -47,202 0,49 16,85 69,85 66,0 126,-46 171,-91 66,-67 114,-150 150,-236l7 -18 9 17c7,15 13,32 13,49 0,78 -70,156 -123,206 -76,71 -194,168 -304,168 -82,0 -115,-52 -115,-129 0,-103 35,-201 84,-289 54,-98 125,-183 215,-249 80,-60 182,-120 285,-120 42,0 80,14 80,61 0,31 -18,64 -36,88 -24,35 -54,65 -87,90 -38,28 -81,49 -124,66 -34,14 -80,31 -117,31 -35,0 -56,-21 -67,-53l0 0zm8 -11l2 0c19,3 39,6 59,6 59,0 113,-17 161,-51 36,-24 73,-60 73,-106 0,-29 -22,-35 -47,-35 -80,0 -150,62 -199,119 -18,21 -34,44 -49,67zm1887 215c-57,69 -120,136 -188,192 -47,37 -116,85 -178,85 -46,0 -68,-26 -68,-71 0,-77 79,-243 112,-312l72 -152c12,-25 33,-70 35,-98 0,-17 -7,-21 -23,-21 -14,0 -35,6 -48,10l-9 2 -11 -43 22 -7c71,-21 142,-44 210,-73l12 -5 0 13c0,70 -51,180 -81,242l-78 161c-18,39 -89,182 -89,223 0,19 6,31 26,31 79,0 182,-125 225,-180 96,-122 172,-257 229,-402l14 -34 5 -1c40,-4 82,-17 119,-32l22 -9 -11 20c-57,110 -106,227 -153,341 -24,58 -47,115 -69,174 -6,18 -22,60 -23,79 -1,16 8,20 22,20 21,0 49,-11 68,-18l8 -3 19 39 -8 3c-68,36 -146,66 -219,93l-38 14 2 -14c15,-91 40,-180 72,-267zm680 13c-62,68 -130,131 -204,185 -52,38 -134,92 -201,92 -54,0 -72,-40 -72,-89 0,-110 58,-215 124,-300 84,-109 189,-196 310,-263 129,-72 270,-117 419,-117 20,0 37,7 37,30 0,20 -19,55 -28,73l-3 5 -6 -1c-39,-7 -78,-11 -118,-11 -58,0 -113,7 -165,21l9 6c33,20 42,57 42,94 0,68 -37,136 -77,191 29,-5 59,-13 86,-23l19 -6 -16 33c-16,35 -86,187 -86,222 0,12 4,17 16,16 20,-1 60,-25 77,-35l7 -4 25 37 -6 5c-76,56 -172,91 -263,113l-11 3 0 -11c4,-74 49,-184 85,-266zm92 -374c-115,31 -216,96 -304,189 -78,84 -144,188 -144,306 0,32 7,63 45,63 39,0 98,-51 125,-75 58,-53 108,-114 151,-179 58,-91 101,-189 125,-294l2 -10zm705 -603c0,112 -102,344 -147,447 -66,151 -132,303 -191,457 -19,49 -64,161 -66,212 -1,19 3,32 23,31 22,-1 71,-39 88,-53l17 -13 27 37 -5 5c-48,42 -152,129 -220,129 -49,0 -62,-41 -62,-84 0,-53 20,-118 38,-168 19,-55 42,-110 64,-165 37,-94 76,-188 115,-282l86 -206c14,-33 77,-181 77,-213 0,-13 -7,-16 -19,-16 -10,0 -36,8 -46,11 -4,1 -8,3 -13,4l-8 3 -14 -42 21 -9c74,-28 152,-57 223,-93l12 -6 0 14zm-4004 556c-23,94 -71,183 -127,261 -59,85 -130,161 -213,222 21,45 51,95 92,124 39,28 87,37 134,37 122,0 221,-53 303,-141 85,-91 132,-199 132,-325 0,-50 -10,-107 -55,-138 -50,-35 -146,-39 -204,-39l-46 0 -16 -1zm-475 508c-24,-54 -46,-110 -62,-166l-72 -267c-41,-149 -104,-338 -205,-458 -78,-92 -175,-141 -296,-141 -114,0 -215,36 -289,124 -80,97 -104,224 -104,347 0,80 15,158 42,233 27,75 64,145 115,206 61,73 135,129 221,169 86,41 176,61 271,61 135,0 262,-42 379,-108z"/>
   </g>
   <path class="fil1" d="M2431 603l12 31c-66,31 -142,62 -226,95l-23 9c3,-21 7,-46 10,-77 3,-24 6,-46 8,-64 3,-26 5,-48 5,-64 0,-37 -17,-55 -52,-55 -56,0 -123,25 -201,75 -103,67 -155,145 -155,233 0,33 14,54 41,63 28,11 86,16 176,16l12 0c2,-20 3,-33 3,-40 0,-52 -7,-97 -22,-136 60,15 91,68 91,160l-1 16 142 -4c66,0 112,5 139,15 90,32 135,98 135,198 0,133 -50,262 -150,385 -119,147 -265,220 -437,220 -126,0 -222,-51 -288,-153 -149,95 -308,142 -475,142 -129,0 -246,-29 -351,-87 -206,-113 -309,-307 -309,-581 0,-174 46,-317 139,-428 92,-111 210,-167 353,-167 140,0 260,45 361,135 56,50 101,110 135,182 35,71 74,186 118,343l46 162c24,88 47,155 66,200 60,-35 120,-99 180,-193 60,-94 97,-180 111,-259l-42 1c-100,0 -171,-8 -213,-25 -41,-16 -62,-45 -62,-86 0,-67 37,-143 110,-228 58,-69 127,-122 207,-162 80,-38 183,-69 309,-91l30 -5 -2 14c-6,27 -11,52 -15,73l-15 85c-4,27 -6,45 -6,52 0,18 7,27 22,27 10,0 21,-2 32,-6 24,-10 42,-17 52,-21zm-338 370c-20,85 -63,173 -128,266 -65,92 -137,166 -217,223 30,64 62,108 98,134 35,26 82,39 139,39 117,0 220,-48 309,-144 90,-96 135,-206 135,-331 0,-70 -20,-118 -59,-145 -39,-27 -109,-40 -209,-40l-45 0 -23 -2zm-458 520c-29,-63 -51,-121 -65,-172l-72 -266c-57,-212 -126,-366 -207,-461 -81,-96 -181,-144 -302,-144 -126,0 -225,42 -295,127 -71,85 -107,202 -107,352 0,78 15,157 43,236 29,80 68,149 117,208 61,74 136,131 223,172 87,41 179,62 275,62 128,0 258,-38 390,-114zm1384 -222c8,17 12,32 12,45 0,58 -40,125 -120,200 -117,110 -217,165 -298,165 -71,0 -106,-40 -106,-120 0,-91 27,-186 82,-285 56,-100 126,-182 213,-247 105,-78 198,-117 280,-117 48,0 72,17 72,52 0,23 -12,51 -35,84 -22,32 -51,61 -86,87 -32,24 -72,45 -121,66 -49,20 -87,29 -114,29 -28,0 -48,-15 -59,-47 26,5 46,7 61,7 60,0 115,-18 166,-53 51,-35 76,-72 76,-113 0,-29 -18,-44 -55,-44 -67,0 -136,41 -205,123 -50,57 -90,125 -122,202 -32,77 -48,145 -48,205 0,62 26,93 78,93 57,0 115,-31 177,-93 61,-62 111,-141 152,-239zm644 269l14 25c-72,52 -158,88 -257,109 13,-100 71,-251 175,-453l59 -113c20,-38 30,-63 30,-74 0,-16 -6,-24 -20,-24 -19,0 -54,21 -106,63 -52,42 -103,91 -153,147 -102,114 -188,252 -257,412 -29,7 -69,21 -121,44 56,-114 112,-241 168,-383 57,-141 85,-225 85,-251 0,-21 -9,-32 -26,-32 -9,0 -29,4 -59,13 -3,1 -6,2 -10,3l-6 -29c85,-24 161,-51 229,-82l12 -5c2,8 3,13 3,16 0,54 -40,168 -120,343l-12 27 15 -17c99,-113 190,-201 273,-266 84,-65 149,-98 196,-98 30,0 44,15 44,45 0,32 -39,124 -118,278 -94,183 -141,286 -141,309 0,18 8,27 24,27 18,0 43,-10 74,-30l5 -4zm653 -618l-10 17 -44 74c-16,27 -32,53 -50,80l-10 14 -22 -15c3,-7 5,-12 6,-15 13,-26 19,-44 19,-55 0,-23 -20,-34 -60,-34 -38,0 -70,13 -98,41 -28,27 -42,59 -42,95 0,20 6,43 18,69l44 93c14,32 22,66 22,104 0,73 -40,142 -120,207 -70,56 -131,84 -185,84 -30,0 -55,-8 -76,-23 -19,-16 -29,-35 -29,-59 0,-29 7,-56 21,-83 37,63 84,95 139,95 44,0 83,-16 117,-45 34,-31 51,-66 51,-105 0,-21 -6,-45 -18,-73l-54 -116c-10,-23 -15,-48 -15,-76 0,-50 28,-106 83,-168 38,-41 75,-69 112,-86 37,-17 84,-25 140,-25 21,0 42,2 61,5zm622 3c-43,81 -94,195 -154,342 -61,146 -91,232 -92,256 -1,19 9,28 30,28 16,0 40,-6 72,-19l12 25c-45,23 -117,54 -219,92l-24 9c15,-98 46,-203 90,-315 -77,99 -151,176 -221,232 -70,56 -127,84 -172,84 -40,0 -60,-21 -60,-63 0,-50 37,-153 111,-308l73 -152c22,-48 34,-81 35,-102 1,-20 -9,-30 -31,-30 -10,0 -27,4 -51,11l-7 -27 14 -5c85,-24 155,-49 212,-73 0,48 -27,128 -81,238l-77 161c-60,124 -90,200 -90,227 0,26 11,39 34,39 58,0 136,-61 232,-183 96,-122 173,-257 230,-404l11 -29c35,-4 76,-15 123,-34zm535 608l17 24c-64,47 -150,85 -260,112 3,-61 39,-166 108,-315 -78,92 -158,167 -241,228 -83,60 -148,90 -196,90 -43,0 -64,-27 -64,-81 0,-91 41,-189 123,-295 81,-105 184,-192 307,-261 139,-77 277,-116 415,-116 19,0 29,7 29,22 0,12 -9,35 -27,69 -42,-8 -81,-11 -120,-11 -185,0 -343,71 -476,214 -98,104 -147,208 -147,311 0,48 18,72 54,72 30,0 74,-26 130,-78 57,-52 108,-113 153,-181 61,-95 103,-194 126,-296 25,16 38,45 38,87 0,59 -29,126 -88,202 29,-3 65,-11 108,-26l-7 16c-58,128 -87,204 -87,225 0,18 8,26 24,25 16,-1 42,-13 81,-37zm622 -1107c0,74 -49,221 -147,443 -169,387 -255,611 -258,673 -1,27 10,40 32,39 18,-1 49,-19 93,-54l11 -8 17 23c-97,85 -168,128 -214,128 -36,0 -54,-25 -54,-76 0,-39 13,-94 38,-165 25,-71 84,-220 179,-446l86 -207c52,-124 78,-196 78,-216 0,-17 -10,-25 -28,-25 -7,0 -23,4 -48,12 -3,1 -8,2 -13,4l-10 -26 14 -6c104,-39 179,-71 224,-93z"/>
   <path class="fil1" d="M3132 1855c8,0 12,6 12,18 0,0 0,1 0,3 0,3 0,4 0,6 0,8 2,12 7,12 2,0 6,-4 11,-10 8,-9 18,-16 30,-21 11,-5 23,-8 36,-8 24,0 40,9 50,26 3,7 6,10 9,10 1,0 5,-3 11,-8 19,-19 40,-28 63,-28 19,0 34,5 46,15 12,11 19,27 19,48 0,5 -1,13 -1,24 0,3 0,15 0,34 0,12 0,20 0,25 -1,3 -1,5 -1,6 0,10 3,18 9,25 3,4 6,7 6,8 1,1 1,3 1,5 0,19 -21,28 -64,28 -20,0 -35,-2 -47,-7 -11,-4 -17,-11 -17,-18 0,-3 0,-5 1,-7 1,-1 3,-5 8,-12 5,-5 7,-25 7,-58 0,-20 -2,-33 -4,-41 -3,-9 -10,-14 -19,-14 -5,0 -9,2 -13,5 -4,3 -6,6 -7,11 -1,5 -2,19 -2,41 0,25 1,39 2,44 1,6 5,13 11,22 1,2 2,5 2,8 0,17 -22,26 -67,26 -27,0 -45,-2 -54,-6 -8,-3 -12,-9 -12,-17 0,-4 1,-6 2,-8 1,-1 4,-4 9,-9 4,-4 6,-6 7,-9 0,-3 1,-8 2,-15 1,-15 1,-31 1,-47 0,-29 -7,-43 -21,-43 -11,0 -18,6 -20,18 -1,12 -2,28 -2,49 0,16 0,26 1,31 0,5 2,10 5,16 3,6 5,11 5,15 0,9 -6,15 -19,19 -15,4 -30,6 -47,6 -23,0 -39,-2 -49,-5 -11,-4 -16,-10 -16,-17 0,-3 1,-6 2,-8 2,-2 5,-5 10,-9 6,-6 10,-14 11,-24 1,-18 2,-37 2,-56 0,-13 0,-23 -2,-28 -1,-6 -4,-10 -9,-13 -4,-4 -7,-6 -8,-8 -1,-2 -2,-4 -2,-7 0,-10 8,-17 23,-23 36,-13 64,-20 82,-20zm455 -2c26,0 49,7 69,21 14,10 26,22 34,38 9,17 14,34 14,51 0,32 -15,58 -43,80 -28,21 -59,31 -94,31 -34,0 -62,-9 -84,-29 -20,-19 -31,-44 -31,-74 0,-34 13,-62 38,-83 27,-23 59,-35 97,-35zm-18 50c-6,0 -11,3 -15,7 -4,5 -5,11 -5,19 0,9 1,20 4,35 4,15 7,28 12,40 4,12 12,17 22,17 13,0 19,-8 19,-24 0,-12 -2,-26 -5,-41 -3,-15 -7,-28 -12,-38 -4,-9 -11,-14 -20,-15zm402 -112l0 197c0,11 1,19 2,22 1,3 3,6 8,9 5,4 8,7 10,10 2,2 3,6 3,10 0,11 -12,20 -35,26 -21,5 -42,8 -62,8 -5,0 -8,-1 -9,-2 -2,-2 -3,-5 -3,-10 -1,-7 -3,-11 -8,-11 -2,0 -6,2 -11,6 -15,12 -31,18 -49,18 -23,0 -43,-8 -61,-24 -10,-10 -19,-22 -25,-35 -9,-17 -13,-34 -13,-51 0,-20 6,-40 17,-59 10,-17 24,-30 42,-40 15,-7 30,-11 44,-11 17,0 32,3 45,11 2,1 4,2 6,2 4,0 6,-7 6,-19 0,-5 -1,-9 -3,-12 -3,-3 -7,-5 -14,-7 -9,-3 -13,-8 -13,-16 0,-10 10,-18 31,-24 37,-10 61,-15 74,-15 12,0 18,5 18,17zm-117 109c-9,0 -17,5 -22,15 -7,13 -11,30 -11,52 0,19 4,34 11,44 5,7 11,11 20,11 9,0 16,-6 20,-16 5,-11 7,-29 7,-53 0,-22 -3,-37 -8,-44 -4,-6 -9,-9 -17,-9zm276 -47c25,0 46,7 63,19 10,7 16,15 20,24 3,8 5,20 5,36l0 32c0,22 1,36 4,43 2,3 4,5 5,6 1,1 4,2 9,2 5,1 7,4 7,9 0,7 -3,15 -8,22 -6,8 -13,14 -22,19 -11,6 -22,9 -34,9 -15,0 -27,-5 -35,-15 -3,-4 -6,-6 -9,-6 -3,0 -7,2 -11,6 -15,10 -31,15 -49,15 -19,0 -34,-4 -46,-12 -8,-5 -14,-12 -18,-21 -5,-8 -7,-17 -7,-26 0,-15 6,-29 18,-40 19,-18 47,-27 85,-28 8,0 13,0 16,-2 2,-2 3,-6 3,-12 0,-15 -2,-26 -5,-33 -3,-6 -8,-10 -15,-10 -5,0 -9,1 -12,4 -3,3 -8,7 -13,14 -12,18 -26,28 -40,28 -7,0 -13,-2 -17,-7 -4,-4 -7,-9 -7,-16 0,-7 3,-14 9,-21 5,-7 13,-13 22,-18 26,-14 53,-21 82,-21zm-15 125c-6,0 -12,3 -16,8 -5,5 -7,11 -7,19 0,7 1,12 5,16 3,5 7,7 13,7 11,0 17,-10 17,-29 0,-8 -1,-14 -2,-16 -2,-3 -5,-5 -10,-5zm372 -109l0 125c0,10 1,17 3,22 2,4 6,8 11,12 4,4 7,6 9,8 1,3 2,6 2,9 0,19 -23,28 -70,28 -26,0 -46,-2 -61,-6 -5,-2 -9,-4 -12,-8 -3,-3 -4,-7 -4,-12 0,-4 0,-7 2,-9 2,-2 6,-6 12,-11 5,-3 8,-8 10,-16 1,-7 2,-18 2,-33 0,-5 0,-14 -1,-27 0,-13 -1,-20 -1,-22 -1,-6 -5,-11 -12,-14 -9,-4 -13,-10 -13,-17 0,-9 5,-16 17,-21 16,-6 33,-11 52,-15 18,-5 32,-7 43,-7 7,0 11,5 11,14zm-42 -95c12,0 22,2 29,7 8,5 11,11 11,19 0,11 -5,20 -16,26 -18,10 -39,16 -64,16 -10,0 -19,-2 -25,-6 -8,-6 -12,-13 -12,-22 0,-12 8,-22 26,-29 18,-7 35,-11 51,-11zm342 159l3 76c0,6 1,10 2,13 2,3 6,8 14,16 2,2 3,5 3,9 0,10 -6,17 -17,20 -12,4 -32,6 -61,6 -20,0 -34,-2 -42,-5 -9,-4 -13,-10 -13,-18 0,-3 1,-5 2,-6 0,-2 3,-5 8,-10 6,-6 9,-26 9,-61 0,-20 -3,-34 -7,-44 -4,-7 -11,-11 -21,-11 -10,0 -16,3 -20,9 -3,6 -5,18 -5,34l0 43c0,8 0,14 2,17 1,3 4,9 10,18 2,3 3,6 3,9 0,9 -6,15 -18,19 -12,4 -30,6 -55,6 -40,0 -60,-8 -60,-25 0,-3 0,-6 2,-8 1,-1 4,-4 8,-7 4,-3 6,-6 7,-10 1,-3 2,-12 3,-26 1,-16 2,-33 2,-51 0,-10 -1,-17 -3,-20 -1,-3 -5,-7 -13,-11 -6,-4 -9,-9 -9,-14 0,-6 3,-11 8,-14 5,-4 15,-9 31,-14 14,-5 27,-9 40,-13 12,-3 21,-5 26,-5 4,0 8,2 11,5 3,3 4,7 4,11 0,1 0,2 0,6 0,1 0,2 0,3 0,6 3,10 8,10 4,0 8,-3 11,-8 13,-18 31,-27 54,-27 19,0 34,5 47,14 9,7 15,15 19,24 4,9 6,23 7,40zm163 -23l0 73c0,9 2,16 6,21 4,6 10,8 16,8 6,0 13,-2 22,-7 3,-2 5,-2 7,-2 3,0 7,2 9,6 3,4 5,9 5,14 0,8 -5,17 -15,25 -20,18 -45,26 -74,26 -23,0 -42,-6 -56,-19 -14,-13 -21,-30 -21,-52l0 -99c0,-4 0,-6 -1,-6 -1,-1 -3,-2 -6,-2l-22 0c-4,0 -7,0 -8,-2 -1,-1 -2,-4 -2,-9l0 -10c0,-4 2,-7 5,-9l99 -62c2,-2 5,-2 9,-2l18 0c3,0 5,0 7,2 1,2 2,5 2,10l0 29c0,4 0,7 2,8 1,2 4,2 8,2l40 0c6,0 9,1 11,3 1,2 2,6 2,13l0 12c0,7 -1,12 -3,15 -2,2 -6,4 -11,4l-39 0c-4,0 -7,1 -8,2 -2,1 -2,4 -2,8zm196 -41l0 125c0,10 1,17 3,22 1,4 5,8 10,12 5,4 8,6 9,8 2,3 3,6 3,9 0,19 -24,28 -71,28 -25,0 -45,-2 -60,-6 -5,-2 -9,-4 -12,-8 -3,-3 -5,-7 -5,-12 0,-4 1,-7 2,-9 2,-2 6,-6 13,-11 4,-3 7,-8 9,-16 2,-7 3,-18 3,-33 0,-5 -1,-14 -1,-27 -1,-13 -1,-20 -2,-22 0,-6 -4,-11 -12,-14 -9,-4 -13,-10 -13,-17 0,-9 6,-16 17,-21 17,-6 34,-11 52,-15 19,-5 33,-7 43,-7 8,0 12,5 12,14zm-43 -95c13,0 23,2 30,7 7,5 11,11 11,19 0,11 -6,20 -17,26 -17,10 -38,16 -63,16 -11,0 -19,-2 -25,-6 -9,-6 -13,-13 -13,-22 0,-12 9,-22 27,-29 18,-7 34,-11 50,-11zm185 81c8,0 12,6 12,18 0,0 0,1 0,3 0,3 0,4 0,6 0,8 2,12 7,12 2,0 6,-4 11,-10 8,-9 18,-16 30,-21 12,-5 24,-8 36,-8 24,0 41,9 50,26 4,7 7,10 9,10 2,0 5,-3 11,-8 19,-19 40,-28 64,-28 18,0 34,5 45,15 13,11 19,27 19,48 0,5 0,13 -1,24 0,3 0,15 0,34 0,12 0,20 0,25 0,3 0,5 0,6 0,10 2,18 8,25 4,4 6,7 7,8 0,1 1,3 1,5 0,19 -22,28 -65,28 -19,0 -35,-2 -46,-7 -12,-4 -18,-11 -18,-18 0,-3 0,-5 1,-7 1,-1 4,-5 8,-12 5,-5 7,-25 7,-58 0,-20 -1,-33 -4,-41 -3,-9 -9,-14 -19,-14 -5,0 -9,2 -13,5 -3,3 -6,6 -7,11 -1,5 -2,19 -2,41 0,25 1,39 2,44 1,6 5,13 11,22 2,2 2,5 2,8 0,17 -22,26 -67,26 -27,0 -45,-2 -54,-6 -8,-3 -11,-9 -11,-17 0,-4 0,-6 1,-8 1,-1 4,-4 10,-9 3,-4 5,-6 6,-9 1,-3 1,-8 2,-15 1,-15 1,-31 1,-47 0,-29 -7,-43 -21,-43 -11,0 -17,6 -19,18 -2,12 -3,28 -3,49 0,16 0,26 1,31 1,5 2,10 5,16 4,6 5,11 5,15 0,9 -6,15 -19,19 -14,4 -30,6 -47,6 -22,0 -39,-2 -49,-5 -10,-4 -15,-10 -15,-17 0,-3 0,-6 2,-8 1,-2 4,-5 9,-9 6,-6 10,-14 11,-24 2,-18 3,-37 3,-56 0,-13 -1,-23 -2,-28 -2,-6 -5,-10 -9,-13 -5,-4 -7,-6 -9,-8 -1,-2 -1,-4 -1,-7 0,-10 7,-17 22,-23 37,-13 64,-20 82,-20zm445 -2c25,0 46,7 63,19 9,7 16,15 20,24 3,8 5,20 5,36l0 32c0,22 1,36 4,43 2,3 4,5 5,6 1,1 4,2 9,2 5,1 7,4 7,9 0,7 -3,15 -8,22 -6,8 -13,14 -22,19 -11,6 -22,9 -34,9 -15,0 -27,-5 -35,-15 -4,-4 -6,-6 -9,-6 -3,0 -7,2 -11,6 -15,10 -31,15 -49,15 -19,0 -34,-4 -46,-12 -8,-5 -14,-12 -18,-21 -5,-8 -7,-17 -7,-26 0,-15 6,-29 18,-40 19,-18 47,-27 85,-28 8,0 13,0 16,-2 2,-2 3,-6 3,-12 0,-15 -2,-26 -5,-33 -3,-6 -8,-10 -15,-10 -5,0 -9,1 -12,4 -3,3 -8,7 -13,14 -12,18 -26,28 -40,28 -7,0 -13,-2 -17,-7 -5,-4 -7,-9 -7,-16 0,-7 3,-14 9,-21 5,-7 13,-13 22,-18 26,-14 53,-21 82,-21zm-15 125c-6,0 -12,3 -16,8 -5,5 -7,11 -7,19 0,7 1,12 5,16 3,5 7,7 13,7 11,0 17,-10 17,-29 0,-8 -1,-14 -2,-16 -2,-3 -5,-5 -10,-5z"/>
   <polygon class="fil1" points="7315,88 7064,88 6970,183 7154,183 6970,367 7037,433 7220,249 7220,433 7315,339 "/>
   <g>
    <path class="fil1 str0" d="M6205 896c0,-92 32,-170 97,-235 65,-65 143,-97 235,-97 92,0 171,32 235,97 65,65 98,143 98,235 0,92 -33,170 -98,235 -64,65 -143,98 -235,98 -92,0 -170,-33 -235,-98 -65,-65 -97,-143 -97,-235zm66 0c0,73 26,136 78,188 52,52 115,78 188,78 74,0 136,-26 188,-78 52,-52 79,-115 79,-188 0,-73 -27,-136 -79,-188 -52,-51 -114,-77 -188,-77 -73,0 -136,26 -188,77 -52,52 -78,115 -78,188z"/>
    <polygon class="fil1 str0" points="6516,1367 6516,1169 6595,1169 6595,1367 6793,1367 6793,1446 6595,1446 6595,1644 6516,1644 6516,1446 6318,1446 6318,1367 "/>
   </g>
   <path class="fil2 str1" d="M6462 633c0,-93 33,-172 98,-237 65,-65 144,-98 237,-98 93,0 172,33 237,98 65,65 98,144 98,237 0,93 -33,172 -98,237 -65,65 -144,98 -237,98 -93,0 -172,-33 -237,-98 -65,-65 -98,-144 -98,-237zm67 0c0,74 26,137 78,189 53,52 116,78 190,78 74,0 137,-26 190,-78 52,-52 78,-115 78,-189 0,-74 -26,-137 -78,-189 -53,-52 -116,-78 -190,-78 -74,0 -137,26 -190,78 -52,52 -78,115 -78,189z"/>
  </g>
 </g>
</svg>
